HIERARCHY
ROOT Pelvis
{
	OFFSET 0.000000 0.000000 0.000000
	CHANNELS 6 Xposition Yposition Zposition Xrotation Yrotation Zrotation
	JOINT LeftUpLeg_virtual
	{
		OFFSET 0.000000 0.000000 0.000000
		CHANNELS 3 Xrotation Yrotation Zrotation
		JOINT LeftUpLeg
		{
			OFFSET 18.735201 -5.666702 -4.541200
			CHANNELS 3 Xrotation Yrotation Zrotation
			JOINT LeftLeg
			{
				OFFSET -0.021200 -31.938179 0.493100
				CHANNELS 3 Xrotation Yrotation Zrotation
				JOINT LeftFoot
				{
					OFFSET 0.021200 -31.938179 -4.336299
					CHANNELS 3 Xrotation Yrotation Zrotation
					JOINT LeftToeBase
					{
						OFFSET 0.943001 -26.722000 15.023500
						CHANNELS 3 Xrotation Yrotation Zrotation
						End Site
						{
							OFFSET 0 0 0
						}
					}
				}
			}
		}
	}
	JOINT RightUpLeg_virtual
	{
		OFFSET 0.000000 0.000000 0.000000
		CHANNELS 3 Xrotation Yrotation Zrotation
		JOINT RightUpLeg
		{
			OFFSET -18.735201 -5.666702 -4.541200
			CHANNELS 3 Xrotation Yrotation Zrotation
			JOINT RightLeg
			{
				OFFSET 0.018946 -31.938133 0.493100
				CHANNELS 3 Xrotation Yrotation Zrotation
				JOINT RightFoot
				{
					OFFSET -0.018946 -31.938126 -4.336299
					CHANNELS 3 Xrotation Yrotation Zrotation
					JOINT RightToeBase
					{
						OFFSET -0.943001 -26.722004 15.023500
						CHANNELS 3 Xrotation Yrotation Zrotation
						End Site
						{
							OFFSET 0 0 0
						}
					}
				}
			}
		}
	}
	JOINT Hips_virtual
	{
		OFFSET 0.000000 0.000000 0.000000
		CHANNELS 3 Xrotation Yrotation Zrotation
		JOINT Hips
		{
			OFFSET -0.000000 -0.000000 -0.000000
			CHANNELS 3 Xrotation Yrotation Zrotation
			JOINT Spine
			{
				OFFSET 0.000000 10.199997 -0.299500
				CHANNELS 3 Xrotation Yrotation Zrotation
				JOINT Spine1
				{
					OFFSET 0.000000 11.900002 -1.516600
					CHANNELS 3 Xrotation Yrotation Zrotation
					JOINT Spine2
					{
						OFFSET 0.000000 13.600006 -2.842500
						CHANNELS 3 Xrotation Yrotation Zrotation
						JOINT Neck_virtual
						{
							OFFSET 0.000000 0.000000 0.000000
							CHANNELS 3 Xrotation Yrotation Zrotation
							JOINT Neck
							{
								OFFSET 0.000000 9.624100 -2.890100
								CHANNELS 3 Xrotation Yrotation Zrotation
								JOINT Head
								{
									OFFSET 0.000000 14.068802 -1.351900
									CHANNELS 3 Xrotation Yrotation Zrotation
									End Site
									{
										OFFSET 0 0 0
									}
								}
							}
						}
						JOINT LeftShoulder_virtual
						{
							OFFSET 0.000000 0.000000 0.000000
							CHANNELS 3 Xrotation Yrotation Zrotation
							JOINT LeftShoulder
							{
								OFFSET 15.263000 10.923401 -0.547700
								CHANNELS 3 Xrotation Yrotation Zrotation
								JOINT LeftArm
								{
									OFFSET 25.438599 -2.830597 -13.032500
									CHANNELS 3 Xrotation Yrotation Zrotation
									JOINT LeftForeArm
									{
										OFFSET 29.960503 0.000000 0.000000
										CHANNELS 3 Xrotation Yrotation Zrotation
										JOINT LeftHand
										{
											OFFSET 27.849251 0.000000 0.000000
											CHANNELS 3 Xrotation Yrotation Zrotation
											End Site
											{
												OFFSET 0 0 0
											}
										}
									}
								}
							}
						}
						JOINT RightShoulder_virtual
						{
							OFFSET 0.000000 0.000000 0.000000
							CHANNELS 3 Xrotation Yrotation Zrotation
							JOINT RightShoulder
							{
								OFFSET -15.263000 10.923401 -0.547700
								CHANNELS 3 Xrotation Yrotation Zrotation
								JOINT RightArm
								{
									OFFSET -25.438599 -2.830597 -13.032500
									CHANNELS 3 Xrotation Yrotation Zrotation
									JOINT RightForeArm
									{
										OFFSET -29.960503 0.000000 0.000000
										CHANNELS 3 Xrotation Yrotation Zrotation
										JOINT RightHand
										{
											OFFSET -27.849251 0.000000 0.000000
											CHANNELS 3 Xrotation Yrotation Zrotation
											End Site
											{
												OFFSET 0 0 0
											}
										}
									}
								}
							}
						}
					}
				}
			}
		}
	}
}
MOTION
Frames: 8
Frame Time: 0.03333333
-3.875768 84.168579 2.567417 0.000000 0.000000 0.000000 12.300213 -55.785608 11.083051 -47.997215 3.988309 30.979744 45.772666 -11.673601 -10.703070 -5.543802 -0.940304 -5.868210 0.000000 0.000000 0.000000 12.300213 -55.785608 11.083051 -29.180866 -8.257816 -24.023718 54.682863 10.293035 -0.836228 -39.153158 -6.717669 13.593229 0.000000 0.000000 0.000000 12.300213 -55.785608 11.083051 0.000000 0.000000 0.000000 11.712291 1.277674 -2.541517 -7.573171 6.733739 -2.520091 0.000000 0.000000 0.000000 0.220138 5.397592 -4.595491 -2.049734 8.374130 4.218930 0.000000 0.000000 0.000000 0.220138 5.397592 -4.595491 -31.809707 13.410715 5.488766 38.429523 -24.730783 -35.179183 -0.000009 -63.060862 -0.000023 0.000000 0.000000 0.000000 0.220138 5.397592 -4.595491 0.882302 7.689506 10.202003 7.550373 1.963482 57.853738 0.000004 75.685196 -0.000017 0.000000 0.000000 0.000000 
-3.935806 84.175049 2.560680 0.000000 0.000000 0.000000 12.216260 -55.729224 10.974144 -47.954919 3.957680 31.056132 45.741688 -11.581294 -10.725572 -5.514056 -1.120580 -5.900701 0.000000 0.000000 0.000000 12.216260 -55.729224 10.974144 -29.021347 -8.338559 -23.941010 54.630530 10.287005 -0.836648 -39.218878 -6.767745 13.538933 0.000000 0.000000 0.000000 12.216260 -55.729224 10.974144 0.000000 -0.000001 0.000000 11.712344 1.277102 -2.543433 -7.573166 6.733734 -2.520089 0.000000 0.000000 0.000000 0.220137 5.397588 -4.595493 -2.004550 8.431874 4.182247 0.000000 0.000000 0.000000 0.220137 5.397588 -4.595493 -31.754075 12.465672 5.128832 39.012302 -25.126441 -34.726984 0.000013 -61.838798 -0.000002 0.000000 0.000000 0.000000 0.220137 5.397588 -4.595493 1.163716 7.679720 9.947279 6.979123 3.931134 56.951753 -0.000105 74.671767 0.000132 0.000000 0.000000 0.000000 
-4.006382 84.178200 2.562649 0.000000 0.000000 0.000000 12.159387 -55.646927 10.879674 -47.941320 3.919099 31.134178 45.720911 -11.487133 -10.748224 -5.487920 -1.324301 -5.930600 0.000000 0.000000 0.000000 12.159387 -55.646927 10.879674 -28.847659 -8.432979 -23.847636 54.563892 10.280107 -0.837053 -39.300048 -6.839246 13.479850 0.000000 0.000000 0.000000 12.159387 -55.646927 10.879674 0.000001 0.000002 -0.000000 11.712392 1.276263 -2.545865 -7.573169 6.733739 -2.520092 0.000000 0.000000 0.000000 0.220137 5.397609 -4.595492 -1.991143 8.532461 4.144021 0.000000 0.000000 0.000000 0.220137 5.397609 -4.595492 -31.730422 11.421056 4.759068 39.967012 -25.538412 -34.374259 0.000012 -60.212380 0.000027 0.000000 0.000000 0.000000 0.220137 5.397609 -4.595492 1.475929 7.670216 9.670639 6.392932 5.865453 55.957319 -0.000005 73.593547 -0.000006 0.000000 0.000000 0.000000 
-4.085599 84.182571 2.562881 0.000000 0.000000 0.000000 12.097085 -55.599949 10.786295 -47.888010 3.886882 31.224729 45.717000 -11.395099 -10.771260 -5.503353 -1.503353 -5.970191 0.000000 0.000000 0.000000 12.097085 -55.599949 10.786295 -28.682908 -8.524082 -23.761998 54.502406 10.272901 -0.837583 -39.375808 -6.871839 13.429275 0.000000 0.000000 0.000000 12.097085 -55.599949 10.786295 0.000000 0.000000 0.000000 11.712445 1.275742 -2.548412 -7.573169 6.733740 -2.520091 0.000000 0.000000 0.000000 0.220136 5.397595 -4.595493 -1.999501 8.663397 4.100119 0.000000 0.000000 0.000000 0.220136 5.397595 -4.595493 -31.736498 10.309249 4.391988 41.206664 -26.015176 -34.093716 0.000004 -58.194031 -0.000002 0.000000 0.000000 0.000000 0.220136 5.397595 -4.595493 1.816776 7.661907 9.370136 5.862043 7.760584 54.903362 -0.000078 72.405381 0.000078 0.000000 0.000000 0.000000 
-4.190835 84.173790 2.586103 0.000000 0.000000 0.000000 11.974179 -55.515620 10.648617 -47.829335 3.857386 31.307757 45.764979 -11.308213 -10.792277 -5.555249 -1.729600 -5.999236 0.000000 0.000000 0.000000 11.974179 -55.515620 10.648617 -28.441070 -8.629706 -23.691353 54.463358 10.265423 -0.837950 -39.519700 -6.936897 13.374549 0.000000 0.000000 0.000000 11.974179 -55.515620 10.648617 0.000000 0.000000 0.000000 11.712515 1.275036 -2.551412 -7.573167 6.733728 -2.520089 0.000000 0.000000 0.000000 0.220134 5.397600 -4.595490 -2.021191 8.808504 4.052277 0.000000 0.000000 0.000000 0.220134 5.397600 -4.595490 -31.768429 9.163167 4.038138 42.599996 -26.639881 -33.886256 -0.000036 -55.860371 -0.000055 0.000000 0.000000 0.000000 0.220134 5.397600 -4.595490 2.178118 7.655629 9.046889 5.487200 9.610658 53.855475 0.000047 71.052545 -0.000072 0.000000 0.000000 0.000000 
-4.318071 84.132851 2.614231 0.000000 0.000000 0.000000 11.868241 -55.436025 10.526716 -47.805522 3.796545 31.413150 45.927896 -11.220414 -10.810295 -5.680235 -1.969907 -6.045292 0.000000 0.000000 0.000000 11.868241 -55.436025 10.526716 -28.222456 -8.718693 -23.637953 54.509735 10.263736 -0.836795 -39.730879 -6.996058 13.327899 0.000000 0.000000 0.000000 11.868241 -55.436025 10.526716 0.000000 -0.000001 0.000000 11.712601 1.274305 -2.554541 -7.573175 6.733746 -2.520092 0.000000 0.000000 0.000000 0.220136 5.397606 -4.595490 -2.052485 8.954476 3.997362 0.000000 0.000000 0.000000 0.220136 5.397606 -4.595490 -31.820608 8.016330 3.705915 44.066157 -27.360727 -33.695642 -0.000008 -53.378748 -0.000005 0.000000 0.000000 0.000000 0.220136 5.397606 -4.595490 2.548994 7.651764 8.703964 5.354238 11.411954 52.878177 0.000015 69.497154 -0.000028 0.000000 0.000000 0.000000 
-4.468851 84.083504 2.660875 0.000000 0.000000 0.000000 11.757709 -55.338555 10.382091 -47.797380 3.706048 31.548220 46.159402 -11.138813 -10.831714 -5.858296 -2.238259 -6.095893 0.000000 0.000000 0.000000 11.757709 -55.338555 10.382091 -27.952863 -8.832428 -23.563184 54.538504 10.258650 -0.835928 -39.972354 -7.070024 13.277067 0.000000 0.000000 0.000000 11.757709 -55.338555 10.382091 0.000000 0.000000 0.000000 11.712711 1.273253 -2.559265 -7.573175 6.733739 -2.520091 0.000000 0.000000 0.000000 0.220136 5.397586 -4.595489 -2.083319 9.094452 3.921854 0.000000 0.000000 0.000000 0.220136 5.397586 -4.595489 -31.885980 6.902782 3.401601 45.490054 -28.161964 -33.525560 -0.000001 -50.897269 -0.000007 0.000000 0.000000 0.000000 0.220136 5.397586 -4.595489 2.920301 7.650380 8.343458 5.491365 13.167191 52.001977 0.000033 67.735881 -0.000028 0.000000 0.000000 0.000000 
-4.649762 84.002144 2.721138 0.000000 0.000000 0.000000 11.651703 -55.194451 10.230253 -47.853285 3.563534 31.715037 46.511409 -11.065703 -10.856750 -6.097639 -2.561377 -6.160969 0.000000 0.000000 0.000000 11.651703 -55.194451 10.230253 -27.650532 -8.948964 -23.472568 54.629178 10.254008 -0.834345 -40.305984 -7.194066 13.206807 0.000000 0.000000 0.000000 11.651703 -55.194451 10.230253 0.000000 0.000002 0.000000 11.712829 1.271895 -2.564861 -7.573173 6.733745 -2.520093 0.000000 0.000000 0.000000 0.220139 5.397582 -4.595490 -2.100471 9.219573 3.825555 0.000000 0.000000 0.000000 0.220139 5.397582 -4.595490 -31.956164 5.857062 3.129556 46.746248 -28.950518 -33.353402 0.000001 -48.637265 -0.000011 0.000000 0.000000 0.000000 0.220139 5.397582 -4.595490 3.283996 7.651122 7.966446 5.920876 14.880291 51.269937 0.000036 65.751144 -0.000023 0.000000 0.000000 0.000000 
